<svg version="1.2" xmlns="http://www.w3.org/2000/svg" xmlns:xlink="http://www.w3.org/1999/xlink" overflow="visible" preserveAspectRatio="none" viewBox="0 0 114.08000183105469 80.04000091552734" width="50" height="34"><g transform="translate(1, 1)"><defs><style>.cls-1_1591690286016{fill:#fff;}</style></defs><g id="Ebene_2_1591690286016"><g id="Ebene_1-2_1591690286016"><path d="M74.55,40.57H55.42l2.33-2.15h0c9.18-8.85,15.68-15.79,15.68-24.62C73.44,6.93,69,0,59,0A20.51,20.51,0,0,0,47.7,3.33l-.34.22v7.28L48.54,10c.2-.14,5-3.45,9.09-3.45h.08c7.1.08,8.16,5.05,8.16,8-.07,6.6-5.32,12.32-16.47,22.93l-5,4.85v4.79H74.55Z" class="cls-1_1591690286016" vector-effect="non-scaling-stroke"/><path d="M19.15,46.92a27.56,27.56,0,0,0,3.66.23A29.69,29.69,0,0,0,36.31,44l.34-.23V36.7l-1.1.58c-.09,0-9.52,4.93-16.72,2.74-7-2.15-10.92-8-10.92-16.45a20.34,20.34,0,0,1,1.56-8.14,14,14,0,0,1,6.39-6.86,18.37,18.37,0,0,1,8.27-1.8V6.52l.11.25a20.5,20.5,0,0,1,11.12,3.32l1.2.88V4l-.08-.41-.32-.2C34,2,28-1.17,18.83.56A21.5,21.5,0,0,0,6.65,6.22C2.91,9.8.68,14.84.2,20.81A27.91,27.91,0,0,0,0,24.05c0,7.12,2.27,13.06,6.56,17.16A21.74,21.74,0,0,0,19.15,46.92Z" class="cls-1_1591690286016" vector-effect="non-scaling-stroke"/><path d="M96.82,57.2c-6.86,6-16,10.49-26.46,13C44,76.44,9.81,61.87,2.43,54L1,52.47,2,54.33C2.17,54.57,16.21,78,55.22,78h0c16.94,0,33.95-5.81,45.5-15.53a46.82,46.82,0,0,0,8.46-9.38l1.91-2.79L91.89,55Z" class="cls-1_1591690286016" vector-effect="non-scaling-stroke"/><path d="M105.8,28.64V.76H98.11L77.78,29.84l0,.07v5H98.58V47.08l7.22-1.74V34.9h6.28V28.64ZM98.58,14.41V28.64H86L96.24,14.38c.9-1.48,1.66-2.8,2.41-4.17C98.6,11.62,98.58,13,98.58,14.41Z" class="cls-1_1591690286016" vector-effect="non-scaling-stroke"/></g></g></g></svg>